<svg width="36" height="36" viewBox="0 0 36 36" fill="none" xmlns="http://www.w3.org/2000/svg">
<path fill-rule="evenodd" clip-rule="evenodd" d="M18 36C27.9411 36 36 27.9411 36 18C36 8.0589 27.9411 0 18 0C8.05887 0 0 8.0589 0 18C0 27.9411 8.05887 36 18 36ZM25.7071 15.2929L18.7071 8.29291C18.3166 7.90234 17.6834 7.90234 17.2929 8.29291L10.2929 15.2929L8.29291 17.2929C7.90237 17.6834 7.90237 18.3166 8.29291 18.7071C8.68341 19.0977 9.31659 19.0977 9.70709 18.7071L10 18.4142V26C10 26.5305 10.2107 27.0391 10.5858 27.4142C10.9608 27.7893 11.4696 28 12 28H15C15.5304 28 16.0392 27.7893 16.4142 27.4142C16.7893 27.0391 17 26.5305 17 26V22H19V26C19 26.5305 19.2107 27.0391 19.5858 27.4142C19.9608 27.7893 20.4696 28 21 28H24C24.5304 28 25.0391 27.7893 25.4142 27.4142C25.7893 27.0391 26 26.5305 26 26V18.4142L26.2929 18.7071C26.6834 19.0977 27.3166 19.0977 27.7071 18.7071C28.0976 18.3166 28.0976 17.6834 27.7071 17.2929L25.7071 15.2929ZM12 26V16.4142L18 10.4142L24 16.4142V26H21V22C21 21.4695 20.7893 20.9609 20.4142 20.5858C20.0392 20.2107 19.5304 20 19 20H17C16.4696 20 15.9608 20.2107 15.5858 20.5858C15.2107 20.9609 15 21.4695 15 22V26H12Z" fill="url(#paint0_linear)"/>
<defs>
<linearGradient id="paint0_linear" x1="4.11429" y1="29.8286" x2="36" y2="18.5143" gradientUnits="userSpaceOnUse">
<stop stop-color="#14B8A6"/>
<stop offset="1" stop-color="#0891B2"/>
</linearGradient>
</defs>
</svg>
