<svg width="756" height="1145" viewBox="0 0 756 1145" fill="none" xmlns="http://www.w3.org/2000/svg">
<path opacity="0.51" d="M430.535 327.768C421.261 322.421 414.605 322.312 410.568 327.332C406.422 332.351 404.458 340.863 404.458 352.757V417.141C404.458 429.363 403.367 439.511 401.076 447.586C398.785 455.989 394.966 461.882 389.729 465.374C384.601 468.975 377.618 469.848 368.78 468.211C360.161 466.683 349.359 462.1 336.485 454.68L330.375 451.078V400.336L338.121 404.81C347.395 410.157 353.505 410.812 356.56 406.992C359.834 403.173 361.47 395.316 361.47 383.421V326.677C361.47 311.836 362.889 300.16 365.834 291.648C368.671 283.027 374.454 277.571 383.073 275.17C374.454 262.839 368.671 250.617 365.834 238.723C362.998 226.828 361.579 213.515 361.579 198.674V141.929C361.579 130.035 359.943 120.214 356.669 112.684C353.614 105.263 347.395 98.8252 338.23 93.4781L330.484 89.004V38.2612L336.594 41.8623C349.468 49.2827 360.27 57.2488 368.889 65.6514C377.727 74.1631 384.71 83.1113 389.838 92.7142C395.184 102.317 399.003 112.575 401.185 123.596C403.476 134.291 404.567 145.749 404.567 157.971V222.354C404.567 234.248 406.64 245.161 410.677 254.873C414.823 264.585 421.479 272.224 430.644 277.462L430.535 327.768Z" fill="url(#paint0_linear)"/>
<path opacity="0.51" d="M196.828 141.274C206.102 146.621 212.757 146.731 216.794 141.711C220.94 136.691 222.904 128.179 222.904 116.285V51.9016C222.904 39.6796 223.995 29.5311 226.287 21.4559C228.578 13.0533 232.288 7.1606 237.416 3.5595C242.762 0.0675208 249.745 -0.805474 258.364 0.722267C267.202 2.35913 278.112 6.94235 290.987 14.4719L297.097 18.073V68.8158L289.35 64.3417C280.076 58.9946 273.857 58.2308 270.584 62.0501C267.529 65.9786 266.001 73.8356 266.001 85.8392V142.584C266.001 157.316 264.583 169.101 261.637 177.613C258.8 186.234 253.018 191.69 244.398 194.091C253.018 206.422 258.8 218.643 261.637 230.538C264.474 242.433 265.892 255.746 265.892 270.587V327.331C265.892 339.226 267.42 348.938 270.475 356.467C273.748 363.997 279.967 370.545 289.241 375.782L296.988 380.257V430.999L290.878 427.398C278.003 419.978 267.093 411.903 258.255 403.5C249.635 395.097 242.653 386.149 237.306 376.437C232.178 366.943 228.469 356.686 226.287 345.773C223.995 335.079 222.904 323.621 222.904 311.399V247.016C222.904 235.121 220.831 224.209 216.794 214.497C212.648 204.785 205.993 197.146 196.828 191.908V141.274Z" fill="url(#paint1_linear)"/>
<path opacity="0.15" d="M462.066 14.0356L692.39 147.058L692.281 699.336L461.957 566.423L462.066 14.0356Z" fill="url(#paint2_linear)"/>
<path d="M418.751 86.3848L602.05 192.126V242.869L418.751 137.128V86.3848Z" fill="#99F6E4"/>
<path opacity="0.2" d="M492.071 321.33L665.769 421.615V575.153L492.071 474.868V321.33Z" fill="url(#paint3_linear)"/>
<path opacity="0.15" d="M490.325 203.584L666.641 305.397V322.748L490.325 220.935V203.584Z" fill="white"/>
<path opacity="0.15" d="M490.325 238.504L642.747 326.458V343.809L490.325 255.855V238.504Z" fill="white"/>
<path opacity="0.15" d="M490.325 272.987L619.725 347.628V364.979L490.325 290.338V272.987Z" fill="white"/>
<path opacity="0.2" d="M462.066 14.0356L692.39 147.058V221.044L461.957 88.1311L462.066 14.0356Z" fill="#2DD4BF"/>
<path opacity="0.2" d="M519.565 84.7481C519.565 95.9879 513.019 101.226 504.945 96.5335C496.871 91.8411 490.325 79.0736 490.325 67.8338C490.325 56.594 496.871 51.356 504.945 56.0484C513.019 60.7407 519.565 73.6174 519.565 84.7481Z" fill="#134E4A"/>
<path opacity="0.25" d="M47.0249 183.178L756 592.394L755.891 1145L46.9158 735.784L47.0249 183.178Z" fill="url(#paint4_linear)"/>
<path d="M0 319.365L183.19 425.107V475.849L0 370.217V319.365Z" fill="#2DD4BF"/>
<path opacity="0.15" d="M94.813 458.826L501.563 693.662V711.013L94.813 476.177V458.826Z" fill="#99F6E4"/>
<path opacity="0.15" d="M94.813 493.746L445.7 696.281V713.632L94.813 511.097V493.746Z" fill="#99F6E4"/>
<path opacity="0.15" d="M94.813 528.338L393.438 700.755V718.105L94.813 545.689V528.338Z" fill="#99F6E4"/>
<path opacity="0.25" d="M369.326 748.333L726.978 954.796V1108.33L369.326 901.871V748.333Z" fill="url(#paint5_linear)"/>
<path opacity="0.15" d="M396.276 794.274L450.174 825.375V876.118L396.276 845.017V794.274Z" fill="#14B8A6"/>
<path opacity="0.15" d="M462.285 834.868L516.184 865.969V916.712L462.285 885.611V834.868Z" fill="#14B8A6"/>
<path opacity="0.15" d="M528.622 872.516L582.52 903.617V954.359L528.622 923.259V872.516Z" fill="#14B8A6"/>
<path opacity="0.15" d="M594.958 912.565L648.857 943.666V994.408L594.958 963.308V912.565Z" fill="#14B8A6"/>
<path opacity="0.3" d="M28.2581 545.58L326.01 717.451V870.989L28.2581 699.009V545.58Z" fill="url(#paint6_linear)"/>
<path opacity="0.15" d="M58.2622 602.216L294.805 738.73V756.081L58.2622 619.566V602.216Z" fill="#0D9488"/>
<path opacity="0.15" d="M58.2622 637.135L247.671 746.478V763.829L58.2622 654.377V637.135Z" fill="#0D9488"/>
<path opacity="0.2" d="M47.0247 183.178L755.018 591.958V666.817L47.0247 258.147V183.178Z" fill="#2DD4BF"/>
<path opacity="0.2" d="M124.163 265.131C124.163 276.371 117.617 281.609 109.543 276.916C101.469 272.224 94.9229 259.456 94.9229 248.217C94.9229 236.977 101.469 231.739 109.543 236.431C117.617 241.124 124.163 254 124.163 265.131Z" fill="#134E4A"/>
<defs>
<linearGradient id="paint0_linear" x1="493.338" y1="22.9462" x2="314.598" y2="332.755" gradientUnits="userSpaceOnUse">
<stop stop-color="#06B6D4"/>
<stop offset="0.903" stop-color="#06B6D4" stop-opacity="0"/>
</linearGradient>
<linearGradient id="paint1_linear" x1="390.172" y1="1.94129" x2="211.411" y2="311.712" gradientUnits="userSpaceOnUse">
<stop stop-color="#06B6D4"/>
<stop offset="0.903" stop-color="#06B6D4" stop-opacity="0"/>
</linearGradient>
<linearGradient id="paint2_linear" x1="696.721" y1="149.567" x2="476.431" y2="531.161" gradientUnits="userSpaceOnUse">
<stop stop-color="#2DD4C0"/>
<stop offset="1" stop-color="#2DD4C0" stop-opacity="0"/>
</linearGradient>
<linearGradient id="paint3_linear" x1="612.18" y1="390.59" x2="550.954" y2="496.645" gradientUnits="userSpaceOnUse">
<stop stop-color="#5EEAD4"/>
<stop offset="1" stop-color="#5EEAD4" stop-opacity="0"/>
</linearGradient>
<linearGradient id="paint4_linear" x1="521.075" y1="456.789" x2="404.391" y2="658.96" gradientUnits="userSpaceOnUse">
<stop stop-color="#2DD4C0"/>
<stop offset="1" stop-color="#2DD4BF" stop-opacity="0"/>
</linearGradient>
<linearGradient id="paint5_linear" x1="581.423" y1="870.748" x2="520.197" y2="976.804" gradientUnits="userSpaceOnUse">
<stop stop-color="#06B6D4"/>
<stop offset="1" stop-color="#06B6D4" stop-opacity="0"/>
</linearGradient>
<linearGradient id="paint6_linear" x1="210.355" y1="650.65" x2="149.129" y2="756.706" gradientUnits="userSpaceOnUse">
<stop stop-color="#22D3EE"/>
<stop offset="1" stop-color="#22D3EE" stop-opacity="0"/>
</linearGradient>
</defs>
</svg>
