<svg xmlns="http://www.w3.org/2000/svg" width="294" height="294" viewBox="0 0 294 294">
  <g fill="none" fill-rule="evenodd">
    <circle cx="147" cy="147" r="147" fill="#3B82F6"/>
    <path fill="#FFF" fill-rule="nonzero" d="M204.585938,203 L204.585938,162.086914 C204.585938,157.02832 203.611816,153.422363 201.663574,151.269043 C199.715332,149.115723 197.203125,148.039062 194.126953,148.039062 C190.982422,148.039062 188.436035,149.115723 186.487793,151.269043 C184.539551,153.422363 183.56543,157.02832 183.56543,162.086914 L183.56543,162.086914 L183.56543,181.979492 L138.243164,181.979492 L138.243164,99.7431641 L150.547852,99.7431641 C155.606445,99.7431641 159.212402,98.769043 161.365723,96.8208008 C163.519043,94.8725586 164.595703,92.3261719 164.595703,89.1816406 C164.595703,86.0371094 163.519043,83.5078125 161.365723,81.59375 C159.212402,79.6796875 155.606445,78.7226562 150.547852,78.7226562 L150.547852,78.7226562 L105.020508,78.6201172 C99.9619141,78.6201172 96.355957,79.5942383 94.2026367,81.5424805 C92.0493164,83.4907227 90.9726562,86.0371094 90.9726562,89.1816406 C90.9726562,92.3261719 92.0493164,94.8725586 94.2026367,96.8208008 C96.355957,98.769043 99.9619141,99.7431641 105.020508,99.7431641 L105.020508,99.7431641 L117.222656,99.7431641 L117.222656,181.979492 L105.020508,181.979492 C99.9619141,181.979492 96.355957,182.953613 94.2026367,184.901855 C92.0493164,186.850098 90.9726562,189.362305 90.9726562,192.438477 C90.9726562,195.583008 92.0493164,198.129395 94.2026367,200.077637 C96.355957,202.025879 99.9619141,203 105.020508,203 L105.020508,203 L204.585938,203 Z"/>
  </g>
</svg>
